<?xml version="1.0" encoding="UTF-8"?> <svg xmlns="http://www.w3.org/2000/svg" xmlns:xlink="http://www.w3.org/1999/xlink" id="Capa_2" data-name="Capa 2" viewBox="0 0 363.64 141.12"><defs><style> .cls-1 { fill: url(#Degradado_sin_nombre_8); } .cls-1, .cls-2, .cls-3, .cls-4, .cls-5, .cls-6, .cls-7, .cls-8, .cls-9, .cls-10, .cls-11, .cls-12 { stroke-width: 0px; } .cls-2 { fill: url(#Degradado_sin_nombre_3); } .cls-3 { fill: url(#Degradado_sin_nombre_2-2); } .cls-4 { fill: url(#Degradado_sin_nombre_2-3); } .cls-5 { fill: url(#Degradado_sin_nombre_3-2); } .cls-6 { fill: url(#Degradado_sin_nombre_3-5); } .cls-7 { fill: url(#Degradado_sin_nombre_7); } .cls-8 { fill: url(#Degradado_sin_nombre_3-6); } .cls-9 { fill: #fff; } .cls-10 { fill: url(#Degradado_sin_nombre_2); } .cls-11 { fill: url(#Degradado_sin_nombre_3-4); } .cls-12 { fill: url(#Degradado_sin_nombre_3-3); } </style><linearGradient id="Degradado_sin_nombre_7" data-name="Degradado sin nombre 7" x1="53.49" y1="145.33" x2="53.49" y2="83.76" gradientUnits="userSpaceOnUse"><stop offset=".42" stop-color="#00b4ff"></stop><stop offset="1" stop-color="#007aff"></stop></linearGradient><linearGradient id="Degradado_sin_nombre_8" data-name="Degradado sin nombre 8" x1="54.11" y1="118.69" x2="54.11" y2="65.17" gradientUnits="userSpaceOnUse"><stop offset="0" stop-color="#00b4ff"></stop><stop offset=".55" stop-color="#0074ff"></stop></linearGradient><linearGradient id="Degradado_sin_nombre_3" data-name="Degradado sin nombre 3" x1="51.27" y1="10.55" x2="50.23" y2="106.43" gradientUnits="userSpaceOnUse"><stop offset="0" stop-color="#ff8200"></stop><stop offset="1" stop-color="red"></stop></linearGradient><linearGradient id="Degradado_sin_nombre_3-2" data-name="Degradado sin nombre 3" x1="182.74" y1="130.01" x2="182.74" y2="140.93" xlink:href="#Degradado_sin_nombre_3"></linearGradient><linearGradient id="Degradado_sin_nombre_3-3" data-name="Degradado sin nombre 3" x1="199.83" y1="130.01" x2="199.83" y2="140.93" xlink:href="#Degradado_sin_nombre_3"></linearGradient><linearGradient id="Degradado_sin_nombre_3-4" data-name="Degradado sin nombre 3" x1="216.43" y1="130.01" x2="216.43" y2="140.93" xlink:href="#Degradado_sin_nombre_3"></linearGradient><linearGradient id="Degradado_sin_nombre_3-5" data-name="Degradado sin nombre 3" x1="232.98" y1="130.01" x2="232.98" y2="140.93" xlink:href="#Degradado_sin_nombre_3"></linearGradient><linearGradient id="Degradado_sin_nombre_3-6" data-name="Degradado sin nombre 3" x1="250.78" y1="130.01" x2="250.78" y2="140.93" xlink:href="#Degradado_sin_nombre_3"></linearGradient><linearGradient id="Degradado_sin_nombre_2" data-name="Degradado sin nombre 2" x1="270.16" y1="131.66" x2="270.05" y2="140.5" gradientUnits="userSpaceOnUse"><stop offset=".18" stop-color="#08d3ff"></stop><stop offset=".55" stop-color="#0074ff"></stop></linearGradient><linearGradient id="Degradado_sin_nombre_2-2" data-name="Degradado sin nombre 2" x1="287.44" y1="131.87" x2="287.33" y2="140.71" xlink:href="#Degradado_sin_nombre_2"></linearGradient><linearGradient id="Degradado_sin_nombre_2-3" data-name="Degradado sin nombre 2" x1="305.48" y1="132.09" x2="305.37" y2="140.94" xlink:href="#Degradado_sin_nombre_2"></linearGradient></defs><g id="Capa_1-2" data-name="Capa 1"><g><g><path class="cls-7" d="M47.65,115.14s-6.89-3.72-12.9-8.18c-6.01-4.46-10.56-7.5-17.39-5.69-5.8,1.54-8.99,8.25-8.62,15.57,9.63,14.98,25.97,24.27,45.03,24.27s34.73-9.3,44.49-23.48c-3.81,1.67-12.36,4.54-23.19,4.87-15.41.48-27.43-7.37-27.43-7.37Z"></path><path class="cls-1" d="M103.09,65.17c-.03,4.94-.19,10.44-2.9,16.61-3.36,7.62-12.26,14.87-19.27,16.15-7.01,1.29-16.73.74-25.39-4.42-8.66-5.15-22.59-18.07-34.16-17.98-7.77.06-11.67,2.72-15.52,7.85-4.04,5.38-4.93,9.75-5.45,12.04,1.02,6.38,2.41,10.64,5.44,16.07-.12-2.47.57-6.07,3.44-9.5,4.01-4.8,12.31-7.85,21.54-2.27,9.23,5.58,25.44,19.84,44.26,18.91,14.67-.72,23.15-4.25,26.18-5.89,4.19-7.73,6.58-16.6,6.58-26.02,0-7.89-1.75-14.78-4.75-21.55Z"></path><path class="cls-2" d="M0,86.12v.04c1.61-3.27,5.5-9.88,11.64-12.5,3.01-1.29,6.22-1.93,9.58-1.93,5.37,0,11.11,1.64,16.99,4.89,2.88,1.59,5.85,3.79,9,6.12,8.48,6.27,18.1,13.38,30.09,11.89,18.31-2.29,22.5-16.42,23.37-24.65.34-3.2.51-6.38.51-9.44-3.12-10.8-7.06-17.96-12.04-21.84,5.22,13.68,4.44,24.25-2.34,31.41l-.14.14-.19-.07c-8.21-3.06-12-10.49-11.25-22.09l.13-2.07.46,2.03c1.45,6.39,3.82,10.14,7.44,11.75,4.17-18.1-.47-32.7-13.8-43.39,1.28,9.29.29,16.38-2.95,21.08l-.53.77-.02-.93c-.45-20.11-10.15-32.33-29.65-37.32,10.39,16.6,6.82,35.66-10.61,56.68,10.25-2.69,18.09-9.82,25.3-22.98l.76-1.39-.2,1.57c-2.23,17.63-12.24,26.64-31.51,28.35l-.31.03-.02-.31c-.6-8.27.61-14.76,3.82-20.24l-.18-.12s.04-.08.07-.12C8.73,51.58,0,68.18,0,86.12ZM50.28,14.05c-.02,3.71-.72,6.71-2.14,9.16l-.64,1.1.08-1.27c.39-6.28-1.2-12.27-4.73-17.8l-.63-.98,1.02.56c14.08,7.64,21.04,20.61,20.68,38.56,5.42-3.7,8.03-9.21,7.97-16.82l-.02-1.88.6,1.78c3.5,10.37-.92,18.66-13.14,24.63l-.49.24.05-.54c1.6-15.96-1.22-27.98-8.62-36.73ZM16.39,61.18l-.42-.19c-.07-.03-3.28-1.17-8.65,7.05l-1.11,1.7.57-1.95c.03-.1,3.1-10.45,9.11-15.46l.49-.41v9.27Z"></path></g><g><g><path class="cls-9" d="M160.67,26.26c-7.09,4.72-10.9,8.76-12.78,12.41-3.01-5.07-7.22-9.33-13.24-12.41h-7.21v40.38h7.21v-31.94c6.85,3.15,9.45,9.36,10.07,17.01h6.42c-.26-7.24,3.07-12.83,9.53-16.97v31.9h7.21V26.26h-7.21Z"></path><path class="cls-9" d="M193.18,26.26h-7.04l-16.54,40.38h7.86s-.08-3.28,4.91-7.62,15.15-3.44,15.15-3.44l4.5,10.81h7.59l-16.44-40.13ZM183.6,51.24l6.01-14.99,5.26,12.67s-9.08-.05-11.26,2.32Z"></path><path class="cls-9" d="M233.21,76.54h-7.04l-16.54,40.38h7.86s-.08-3.28,4.91-7.62c5-4.34,15.15-3.44,15.15-3.44l4.5,10.81h7.59l-16.44-40.13ZM223.62,101.52l6.01-14.99,5.26,12.67s-9.08-.05-11.26,2.32Z"></path><path class="cls-9" d="M301.47,76.54h-7.04l-16.54,40.38h7.86s-.08-3.28,4.91-7.62,15.15-3.44,15.15-3.44l4.5,10.81h7.59l-16.44-40.13ZM291.89,101.52l6.01-14.99,5.26,12.67s-9.08-.05-11.26,2.32Z"></path><path class="cls-9" d="M239.73,58.12c-1.29-1.23-5.42-6.94-6.77-8.83,4.58-.67,8.09-4.6,8.09-9.36v-3.01c0-5.88-4.77-10.65-10.65-10.65h-19.03v40.38h7.21v-15.4h4.09s3.04.31,5.12,2.57,5.17,7.21,7.08,9.12c1.91,1.91,3.39,2.81,4.56,3.22,1.17.41,3.82.27,3.82.27v-6.72s-1.97-.11-3.52-1.58ZM228.58,44.27h-10v-11.02h10.55c2.53,0,4.59,2.05,4.59,4.59v1.29c0,2.84-2.3,5.14-5.14,5.14Z"></path><path class="cls-9" d="M206.1,108.39c-1.29-1.23-5.42-6.94-6.77-8.83,4.58-.67,8.09-4.6,8.09-9.36v-3.01c0-5.88-4.77-10.65-10.65-10.65h-19.03v40.38h7.21v-15.4h4.09s3.04.31,5.12,2.57,5.17,7.21,7.08,9.12c1.91,1.91,3.39,2.81,4.56,3.22,1.17.41,3.82.27,3.82.27v-6.72s-1.97-.11-3.52-1.58ZM194.95,94.55h-10v-11.02h10.55c2.53,0,4.59,2.05,4.59,4.59v1.29c0,2.84-2.3,5.14-5.14,5.14Z"></path><path class="cls-9" d="M274.39,33.46v-7.21h-28.08v40.38h28.08v-7.21h-20.87v-5.15c1.04-2.14,2.35-3.42,5.57-4.9,4.04-1.86,12.39-1.58,12.39-1.58v-6.77s-4.97-.05-10.06.66c-3.39.47-6.32,2.27-7.9,3.43v-11.64h20.87Z"></path><path class="cls-9" d="M304.24,37.09v-8.24s-4.75-3.11-13.87-2.95-13.32,6.12-13.49,10.54,1.36,8.24,7.1,10.81,14.69,4.09,14.47,8.3c-.22,4.2-5.24,4.8-8.41,4.64s-9.39-1.75-12.5-4.48v7.53s5.9,3.99,13.98,3.77c8.08-.22,12.83-3.99,13.87-7.97,1.04-3.99,1.16-7.4-2.95-11.14-4.2-3.82-17.25-5.84-17.85-9.72-.5-3.25,2.34-5.93,7.2-5.6s9.18,1.07,12.45,4.51Z"></path><path class="cls-9" d="M344.81,87.36v-8.24s-4.75-3.11-13.87-2.95-13.32,6.12-13.49,10.54c-.16,4.42,1.36,8.24,7.1,10.81s14.69,4.09,14.47,8.3-5.24,4.8-8.41,4.64-9.39-1.75-12.5-4.48v7.53s5.9,3.99,13.98,3.77,12.83-3.99,13.87-7.97c1.04-3.99,1.16-7.4-2.95-11.14s-17.25-5.84-17.85-9.72c-.5-3.25,2.34-5.93,7.2-5.6s9.18,1.07,12.45,4.51Z"></path><path class="cls-9" d="M345.27,87.36v-8.24s-4.75-3.11-13.87-2.95-13.32,6.12-13.49,10.54,1.36,8.24,7.1,10.81,14.69,4.09,14.47,8.3-5.24,4.8-8.41,4.64-9.39-1.75-12.5-4.48v7.53s5.9,3.99,13.98,3.77,12.83-3.99,13.87-7.97,1.16-7.4-2.95-11.14-17.25-5.84-17.85-9.72c-.5-3.25,2.34-5.93,7.2-5.6s9.18,1.07,12.45,4.51Z"></path><path class="cls-9" d="M277.03,87.36v-8.24s-4.75-3.11-13.87-2.95-13.32,6.12-13.49,10.54,1.36,8.24,7.1,10.81,14.69,4.09,14.47,8.3-5.24,4.8-8.41,4.64-9.39-1.75-12.5-4.48v7.53s5.9,3.99,13.98,3.77,12.83-3.99,13.87-7.97,1.16-7.4-2.95-11.14-17.25-5.84-17.85-9.72c-.5-3.25,2.34-5.93,7.2-5.6s9.18,1.07,12.45,4.51Z"></path><path class="cls-9" d="M168.13,95.29c2.56-.47,4.5-2.7,4.5-5.39v-3.16c0-5.63-4.57-10.2-10.2-10.2h-12.32v-.38h-7.21v40.38h20.24c5.76,0,10.43-4.67,10.43-10.43v-4.56c0-3.19-2.37-5.82-5.44-6.26ZM161.16,83.32s3.99.37,3.83,4.12c-.16,3.75-3.28,4.18-3.28,4.18,0,0-5.9.22-8.44,1.15-1.48.54-2.54,1.15-3.17,1.57v-11.01h11.06ZM166.24,104.63c-.12,2.95-1.02,4.63-4.59,5.32h-11.55v-6.82c.92-1.45,2.5-3.37,4.63-3.91,3.56-.9,7.86-.49,9.21.25,1.35.74,2.42,2.21,2.29,5.16Z"></path><polygon class="cls-9" points="363.64 26.56 354.85 26.56 343.55 43.1 332.47 26.56 323.73 26.56 339.95 50.65 339.95 66.63 347.15 66.63 347.15 50.85 363.64 26.56"></polygon></g><g><g><path class="cls-5" d="M187.33,131.16c0-3.08-2.21-4.09-5.08-4.09h-4.65v13.79h2.45v-5.39h2.1l2.97,5.39h2.75l-3.3-5.75c1.66-.58,2.76-1.86,2.76-3.95ZM180.05,129.03h1.95c1.89,0,2.92.55,2.92,2.13s-1.03,2.35-2.92,2.35h-1.95v-4.49Z"></path><polygon class="cls-12" points="198.02 134.72 202.98 134.72 202.98 132.66 198.02 132.66 198.02 129.13 203.88 129.13 203.88 127.07 195.58 127.07 195.58 140.86 204.09 140.86 204.09 138.8 198.02 138.8 198.02 134.72"></polygon><path class="cls-11" d="M218.6,133.29l-1.86-.78c-1.14-.47-2.19-.87-2.19-1.95,0-1.01.85-1.62,2.16-1.62,1.18,0,2.12.44,3,1.19l1.26-1.55c-1.08-1.09-2.64-1.76-4.25-1.76-2.69,0-4.63,1.69-4.63,3.89,0,2.02,1.43,3.09,2.79,3.66l1.89.82c1.25.53,2.14.89,2.14,2.03,0,1.08-.85,1.78-2.4,1.78-1.28,0-2.61-.63-3.59-1.57l-1.43,1.68c1.31,1.29,3.1,2.02,4.97,2.02,3.1,0,4.95-1.86,4.95-4.1,0-2-1.15-3.04-2.79-3.72Z"></path><polygon class="cls-6" points="227.77 129.13 231.75 129.13 231.75 140.86 234.2 140.86 234.2 129.13 238.18 129.13 238.18 127.07 227.77 127.07 227.77 129.13"></polygon><path class="cls-8" d="M250.78,126.82c-3.59,0-6.08,2.63-6.08,7.1s2.49,7.21,6.08,7.21,6.08-2.74,6.08-7.21-2.49-7.1-6.08-7.1ZM250.78,138.99c-2.17,0-3.57-1.98-3.57-5.08s1.4-4.97,3.57-4.97,3.57,1.87,3.57,4.97-1.4,5.08-3.57,5.08Z"></path></g><g><path class="cls-10" d="M272.54,133.54v-.08c1.21-.42,1.91-1.69,1.91-2.99,0-2.53-2.08-3.4-4.92-3.4h-4.41v13.79h4.77c3.04,0,5.3-1.29,5.3-4.05,0-1.86-1.12-2.93-2.65-3.27ZM267.57,128.97h1.8c1.79,0,2.69.51,2.69,1.84,0,1.2-.82,1.95-2.74,1.95h-1.75v-3.79ZM269.64,138.96h-2.07v-4.36h2.07c2.06,0,3.16.63,3.16,2.08,0,1.55-1.13,2.28-3.16,2.28Z"></path><path class="cls-3" d="M285.9,127.07l-4.5,13.79h2.5l1.08-3.74h4.63l1.07,3.74h2.59l-4.5-13.79h-2.87ZM285.53,135.21l.49-1.68c.44-1.46.84-3.02,1.22-4.55h.08c.4,1.51.81,3.09,1.25,4.55l.48,1.68h-3.52Z"></path><path class="cls-4" d="M310.59,140.86l-3.3-5.75c1.66-.58,2.76-1.86,2.76-3.95,0-3.08-2.21-4.09-5.08-4.09h-4.65v13.79h2.45v-5.39h2.1l2.97,5.39h2.75ZM302.77,129.03h1.95c1.89,0,2.92.55,2.92,2.13s-1.03,2.35-2.92,2.35h-1.95v-4.49Z"></path></g></g></g></g></g></svg> 